<?xml version="1.0" standalone="no"?>
<!DOCTYPE svg PUBLIC "-//W3C//DTD SVG 20010904//EN"
 "http://www.w3.org/TR/2001/REC-SVG-20010904/DTD/svg10.dtd">
<svg version="1.0" xmlns="http://www.w3.org/2000/svg"
 width="906.000000pt" height="259.000000pt" viewBox="0 0 906.000000 259.000000"
 preserveAspectRatio="xMidYMid meet">

<g transform="translate(0.000000,259.000000) scale(0.100000,-0.100000)"
fill="#000000" stroke="none">
<path d="M1050 2006 c-191 -44 -327 -118 -463 -253 -171 -169 -259 -382 -260
-628 0 -150 25 -262 89 -393 l45 -93 42 6 c59 8 407 45 424 45 10 0 13 58 13
308 l0 307 142 100 c78 55 145 101 150 103 4 2 46 -24 92 -57 46 -34 87 -61
90 -61 3 0 6 16 6 35 0 28 4 35 20 35 18 0 20 -7 20 -54 0 -51 2 -56 35 -76
l35 -22 0 -309 c0 -255 2 -309 14 -309 17 0 366 -37 423 -45 l41 -6 30 53 c35
64 65 141 88 228 27 99 24 319 -5 425 -51 190 -158 355 -309 476 -80 65 -242
148 -337 174 -80 22 -348 29 -425 11z"/>
<path d="M2819 1666 c-102 -27 -181 -95 -227 -196 -32 -68 -35 -186 -8 -267
22 -66 84 -137 150 -170 92 -48 318 -42 390 10 18 13 18 15 -2 68 -11 30 -24
53 -29 52 -4 -2 -33 -12 -63 -23 -164 -58 -299 28 -300 191 0 99 35 165 105
199 55 27 157 27 225 1 l51 -19 -3 71 -3 72 -50 12 c-66 15 -179 15 -236 -1z"/>
<path d="M5060 1671 c-52 -17 -90 -42 -117 -78 -25 -32 -28 -45 -28 -108 0
-95 26 -130 134 -185 97 -48 141 -84 141 -115 0 -67 -112 -85 -212 -34 l-38
19 -25 -50 c-14 -27 -25 -54 -25 -59 0 -6 19 -21 43 -33 59 -31 218 -38 283
-13 54 20 99 57 119 96 19 36 19 132 1 168 -22 42 -79 87 -159 126 -76 37
-107 65 -107 95 0 52 82 65 183 31 l57 -20 0 69 c0 68 0 68 -32 80 -41 15
-185 22 -218 11z"/>
<path d="M7878 1666 c-177 -51 -273 -206 -246 -396 14 -109 73 -192 168 -241
87 -44 315 -36 384 14 18 13 18 15 0 70 -14 45 -21 56 -33 51 -131 -58 -221
-56 -292 3 -112 94 -83 315 47 369 48 20 154 18 214 -5 l50 -19 0 69 c0 67 -1
70 -27 80 -45 17 -212 20 -265 5z"/>
<path d="M3550 1340 l0 -330 75 0 75 0 2 203 3 202 85 -117 c77 -107 88 -118
116 -118 28 0 37 10 110 118 l79 117 3 -202 2 -203 75 0 75 0 0 330 0 330 -73
0 -72 0 -99 -154 -99 -155 -56 82 c-31 45 -80 115 -110 155 l-53 72 -69 0 -69
0 0 -330z"/>
<path d="M5480 1340 l0 -330 200 0 200 0 0 60 0 60 -120 0 -120 0 0 75 0 75
105 0 105 0 0 65 0 65 -105 0 -105 0 0 65 0 64 102 3 101 3 18 50 c10 28 18
56 18 63 1 9 -45 12 -199 12 l-200 0 0 -330z"/>
<path d="M6020 1341 l0 -331 75 0 75 0 0 120 0 120 29 0 c36 0 57 -26 125
-152 l48 -88 84 0 c46 0 84 2 84 5 0 12 -117 212 -145 249 l-31 41 41 26 c57
36 78 84 73 165 -5 75 -25 108 -89 144 -41 23 -55 25 -206 28 l-163 4 0 -331z
m260 196 c63 -32 59 -126 -6 -153 -18 -8 -49 -14 -69 -14 l-35 0 0 90 0 90 43
0 c23 0 53 -6 67 -13z"/>
<path d="M6593 1638 c8 -18 69 -169 137 -335 l123 -303 67 0 66 0 122 298 c66
163 128 314 137 335 l15 37 -82 0 -83 0 -85 -225 c-47 -123 -87 -225 -90 -225
-3 0 -43 101 -90 225 l-85 225 -83 0 -82 0 13 -32z"/>
<path d="M7340 1335 l0 -336 78 3 77 3 3 333 2 332 -80 0 -80 0 0 -335z"/>
<path d="M8310 1340 l0 -330 200 0 200 0 0 60 0 60 -120 0 -120 0 0 75 0 75
105 0 105 0 0 65 0 65 -105 0 -105 0 0 65 0 64 103 3 102 3 17 50 c9 28 17 56
17 63 1 9 -45 12 -199 12 l-200 0 0 -330z"/>
<path d="M3268 1130 c-25 -26 -29 -36 -24 -62 9 -47 33 -68 78 -68 51 0 78 27
78 79 0 31 -6 44 -26 60 -37 29 -70 26 -106 -9z"/>
<path d="M4424 1136 c-34 -28 -38 -84 -9 -116 25 -27 88 -27 115 0 31 31 27
93 -6 119 -35 27 -67 26 -100 -3z"/>
</g>
</svg>
