<?xml version="1.0" standalone="no"?>
<!DOCTYPE svg PUBLIC "-//W3C//DTD SVG 20010904//EN"
 "http://www.w3.org/TR/2001/REC-SVG-20010904/DTD/svg10.dtd">
<svg version="1.0" xmlns="http://www.w3.org/2000/svg"
 width="760.000000pt" height="691.000000pt" viewBox="0 0 760.000000 691.000000"
 preserveAspectRatio="xMidYMid meet">

<g transform="translate(0.000000,691.000000) scale(0.100000,-0.100000)"
fill="#000000" stroke="none">
<path d="M3590 6293 c-934 -41 -1785 -469 -2366 -1193 -360 -449 -583 -980
-660 -1575 -24 -179 -24 -561 0 -740 57 -441 196 -846 416 -1220 l52 -86 36 5
c20 4 372 42 782 86 410 44 766 82 793 86 l47 6 0 1062 0 1062 486 344 c268
190 499 353 515 363 l27 18 311 -221 c171 -121 314 -220 316 -220 3 0 5 59 5
130 l0 130 65 0 65 0 0 -179 0 -180 130 -91 130 -92 0 -1063 0 -1063 43 -6
c23 -3 359 -40 747 -81 388 -42 741 -80 785 -85 95 -10 83 -20 176 144 364
639 485 1421 334 2154 -250 1211 -1212 2174 -2435 2436 -242 52 -560 79 -800
69z"/>
</g>
</svg>
