<svg xmlns="http://www.w3.org/2000/svg" width="388" height="119" class="animation-init animation-start"><style>mask path{fill:none;stroke:#fff;stroke-width:var(--stroke-width);stroke-linecap:round}</style><path class="brush" mask="url(#mask25)" d="M7.32 38.25c27.43-17.91 61.75-26.89 94.35-25.17 44.6 2.34 85.55 25.1 112.7 60.21A157.9 157.9 0 0 1 232.71 103c1.13 2.42 4.6-.2 5.56-1.33 1.69-2 2.54-4.76 1.42-7.17a164.31 164.31 0 0 0-56-65.41C143.26 1.67 92-4.14 45.86 10.93A164.37 164.37 0 0 0 7.16 29C5 30.4 3 33.12 3.18 35.86c.16 2.22 2 3.8 4.14 2.39Z"/><path class="brush" mask="url(#mask26)" d="M249.59 76.89A63.1 63.1 0 0 0 232 108.55l7.43-5.25a60.1 60.1 0 0 0-24.21-14c-4-1.21-8.86 8.79-3.87 10.29a54 54 0 0 1 21.1 12.21c3.23 3 6.8-2.44 7.44-5.25a43.59 43.59 0 0 1 11.91-21.83c1.69-1.65 3.79-4.75 2.8-7.27-.9-2.29-3.37-2.16-5-.56Z"/><mask id="mask25" style="--stroke-lenght:271;--stroke-width:12;--anim-duration:.7s;--anim-delay:.5s"><path d="M7.24 33.61c7.37-4.82 65.27-41.32 135.37-18.38C205.9 35.94 232 89.66 236.2 98.79"/></mask><mask id="mask26" style="--stroke-lenght:60;--stroke-width:12;--anim-duration:.5s;--anim-delay:1.2s"><path d="M250.7 80.81a51.56 51.56 0 0 0-14.7 26.73 54.21 54.21 0 0 0-22.65-13.1"/></mask></svg>