 <svg  version="1.0" xmlns="http://www.w3.org/2000/svg"  width="300.000000pt" height="172.000000pt" viewBox="0 0 300.000000 172.000000"  preserveAspectRatio="xMidYMid meet">  <g transform="translate(0.000000,172.000000) scale(0.100000,-0.100000)" fill="#ffffff" stroke="none"> <path d="M1345 1251 c-146 -27 -257 -68 -463 -170 -170 -84 -263 -120 -355 -136 -39 -6 -57 -31 -57 -77 0 -19 145 -272 178 -310 12 -15 32 -18 106 -18 121 0 141 -11 141 -74 1 -41 5 -52 29 -71 89 -71 275 -51 300 31 5 16 10 35 12 42 3 10 24 12 101 5 54 -4 168 -7 253 -6 144 2 178 6 422 50 19 4 28 0 32 -14 14 -44 44 -63 100 -63 142 0 267 105 254 214 -2 20 9 35 56 73 70 58 113 115 121 165 10 56 -25 87 -150 128 -55 18 -189 71 -298 117 -241 103 -323 123 -532 129 -117 3 -172 0 -250 -15z m455 -54 c0 -23 -3 -23 -242 -46 -134 -13 -247 -26 -251 -31 -5 -4 -16 -56 -25 -114 -14 -95 -18 -107 -38 -112 -57 -14 -64 -6 -114 128 -26 70 -45 130 -42 133 3 3 18 5 33 5 25 0 29 -6 54 -82 39 -121 36 -116 45 -86 4 14 11 58 15 97 4 39 12 74 17 77 11 7 429 51 501 53 43 1 47 -1 47 -22z m120 -9 c19 -6 112 -44 207 -84 95 -41 178 -74 184 -74 7 0 2 -11 -11 -25 -17 -19 -27 -22 -41 -15 -26 15 -55 12 -73 -6 -14 -13 -21 -13 -51 -3 -28 11 -42 11 -70 0 -19 -7 -44 -9 -56 -6 -12 4 -30 0 -45 -9 -19 -13 -29 -14 -45 -5 -11 6 -32 8 -46 4 -23 -5 -24 -4 -19 22 4 18 0 40 -13 64 -11 20 -17 46 -14 57 2 11 0 29 -6 39 -7 15 -6 25 4 41 15 21 23 21 95 0z m-690 -7 c0 -6 -4 -13 -10 -16 -5 -3 -10 -18 -10 -33 l0 -27 -19 30 c-17 27 -17 31 -3 43 19 14 42 16 42 3z m575 -52 c15 -14 -13 -34 -48 -34 -48 0 -48 -18 1 -30 42 -10 72 -35 72 -61 0 -21 -34 -54 -65 -62 -35 -10 -95 3 -95 21 1 28 16 38 43 28 30 -12 57 -5 57 14 0 7 -18 15 -42 18 -45 6 -68 27 -68 62 0 24 25 50 55 58 25 6 77 -2 90 -14z m-732 -35 c18 -58 79 -213 85 -217 4 -2 0 -2 -8 1 -32 9 -63 9 -98 1 -21 -5 -65 -10 -100 -12 -34 -1 -66 -7 -70 -13 -4 -6 -18 -9 -32 -7 -14 2 -50 5 -81 6 -31 1 -63 8 -71 15 -28 23 -108 -24 -108 -63 0 -32 45 -84 68 -78 14 3 21 -4 30 -35 17 -55 15 -70 -9 -82 -11 -7 -22 -10 -24 -8 -1 2 -36 57 -76 123 -88 146 -94 194 -24 195 43 0 163 47 322 125 92 46 172 82 177 81 6 -1 14 -15 19 -32z m500 -37 c18 -22 18 -22 13 21 -6 41 -6 42 23 42 l29 0 7 -86 c4 -47 5 -87 3 -89 -1 -2 -15 -6 -30 -10 -23 -6 -30 -2 -52 34 -15 23 -29 41 -31 41 -3 0 -4 -19 -3 -42 3 -37 0 -43 -19 -46 -23 -3 -24 2 -38 130 -6 56 -6 57 22 60 18 3 33 -2 43 -14 8 -10 23 -29 33 -41z m-132 -37 c16 -41 28 -81 28 -87 1 -18 -46 -16 -53 2 -9 25 -55 18 -66 -10 -6 -16 -17 -25 -31 -25 -20 0 -21 3 -15 53 4 28 12 74 18 100 l10 48 41 -3 41 -3 27 -75z m989 -27 c0 -16 -25 -73 -31 -73 -15 0 -20 21 -14 50 5 21 13 30 26 30 10 0 19 -3 19 -7z m50 -18 c0 -18 -25 -65 -35 -65 -22 0 -24 13 -10 47 10 23 19 31 29 27 9 -3 16 -7 16 -9z m-115 -60 c6 -61 16 -78 30 -55 11 18 25 10 25 -15 0 -19 -11 -33 -47 -55 l-48 -31 -6 23 c-3 13 -9 62 -13 111 l-7 87 29 0 c29 0 30 -1 37 -65z m-111 39 c3 -9 6 -41 7 -72 1 -70 9 -97 29 -97 8 0 15 -9 15 -19 0 -20 -67 -62 -83 -52 -5 3 -13 50 -16 103 -4 54 -9 110 -12 126 -5 25 -3 27 24 27 18 0 32 -6 36 -16z m-105 -31 c6 -20 20 -79 32 -131 19 -79 20 -95 8 -103 -22 -14 -37 -11 -44 10 -9 30 -45 15 -45 -19 0 -19 -7 -30 -25 -38 -14 -7 -29 -12 -32 -12 -6 0 7 311 14 323 2 4 22 7 43 7 37 0 40 -2 49 -37z m-129 -77 c0 -56 -3 -131 -6 -164 -6 -57 -9 -62 -37 -72 -16 -5 -31 -10 -33 -10 -2 0 -9 27 -16 60 -14 72 -26 67 -30 -15 l-3 -60 -35 0 -34 0 -40 162 c-22 89 -38 164 -36 167 3 2 19 6 35 8 l30 3 16 -90 c18 -102 27 -96 31 20 3 78 4 80 30 83 29 3 28 4 50 -93 l13 -60 3 70 c3 88 6 95 37 95 l25 0 0 -104z m509 90 c10 -12 5 -19 -26 -40 -45 -31 -78 -35 -40 -6 14 11 29 29 32 40 7 24 18 25 34 6z m-823 -62 c-3 -8 -19 -14 -37 -14 -28 0 -31 -3 -25 -22 3 -13 6 -36 6 -51 0 -25 3 -28 28 -25 24 3 27 -1 30 -29 3 -30 1 -33 -24 -33 -24 0 -26 -2 -20 -31 3 -17 6 -38 6 -45 0 -9 12 -14 35 -14 31 0 35 -3 35 -25 0 -22 -4 -25 -34 -25 -18 0 -47 -3 -63 -6 l-30 -6 -18 171 c-10 94 -15 174 -11 178 4 4 31 10 59 13 54 5 75 -6 63 -36z m-150 -109 c6 -71 13 -148 15 -170 4 -39 3 -40 -26 -40 -26 0 -30 4 -33 30 -7 82 -12 95 -37 95 -22 0 -24 -4 -20 -30 3 -16 7 -43 10 -60 4 -28 3 -30 -30 -30 -26 0 -35 4 -36 18 0 9 -6 80 -13 157 -7 77 -11 143 -9 148 2 4 15 7 27 7 26 0 36 -22 36 -82 0 -48 9 -68 29 -68 27 0 28 5 19 76 -4 37 -5 71 -2 76 3 5 18 8 32 6 27 -3 27 -3 38 -133z m994 110 c0 -70 -325 -267 -545 -330 -232 -67 -497 -77 -805 -31 -96 15 -249 32 -340 38 -91 6 -168 14 -172 17 -4 3 -3 12 1 20 10 16 168 6 467 -30 441 -52 692 -31 977 81 112 44 254 126 342 199 65 54 75 59 75 36z m-1190 -20 c0 -18 -7 -26 -25 -31 -25 -6 -25 -8 -19 -73 3 -36 9 -92 13 -123 l8 -58 -28 0 c-24 0 -29 5 -33 33 -6 38 -26 197 -26 207 0 4 -11 5 -25 2 -22 -4 -25 -1 -25 26 0 31 1 31 58 35 31 2 67 4 80 5 17 2 22 -3 22 -23z m-662 -20 c16 -35 15 -55 -3 -55 -21 0 -47 54 -32 69 16 16 22 14 35 -14z m447 -5 c0 -20 -6 -26 -27 -28 -37 -4 -40 -42 -4 -42 17 0 25 -7 28 -25 4 -21 1 -25 -18 -25 -22 0 -24 -4 -24 -56 0 -54 0 -55 -27 -52 -31 3 -36 18 -48 165 l-7 82 43 4 c75 7 84 4 84 -23z m594 -17 c44 -168 55 -233 42 -233 -4 0 -17 14 -29 30 -13 17 -29 30 -37 30 -21 0 -19 26 5 59 17 22 19 32 11 54 -6 14 -19 32 -31 39 -25 16 -26 34 -2 47 27 16 31 14 41 -26z m-736 8 c6 -25 0 -31 -30 -31 -16 0 -23 -6 -23 -20 0 -14 7 -20 24 -20 17 0 25 -7 28 -25 6 -29 2 -35 -24 -35 -14 0 -18 -8 -18 -35 0 -32 -2 -35 -29 -35 -29 0 -30 2 -36 58 -3 31 -8 78 -11 104 -6 52 -3 55 72 57 33 1 43 -3 47 -18z m-343 -20 c12 -29 7 -51 -10 -51 -13 0 -42 59 -35 70 12 19 33 10 45 -19z m181 10 c19 -15 24 -30 27 -88 4 -65 2 -72 -19 -87 -36 -25 -84 -21 -108 9 -75 96 10 239 100 166z m393 -103 c3 -34 6 -76 6 -95 l0 -33 -42 6 c-24 3 -49 7 -55 10 -20 6 -15 69 7 97 22 27 25 53 10 77 -5 9 -5 19 1 27 9 10 17 8 39 -8 23 -17 28 -31 34 -81z m1121 -113 c0 -18 -6 -20 -55 -17 -48 3 -61 -1 -101 -27 -25 -17 -51 -42 -57 -56 -13 -29 -24 -31 -42 -10 -11 13 -8 21 21 51 51 53 124 85 184 82 42 -3 50 -6 50 -23z m-45 -54 c0 -40 -116 -92 -135 -60 -14 21 59 79 100 79 28 0 35 -4 35 -19z m-1152 -61 c30 -17 42 -30 42 -47 0 -26 -21 -31 -40 -9 -25 31 -97 49 -170 43 -72 -6 -86 2 -57 32 21 23 173 10 225 -19z m-39 -56 c23 -16 24 -17 6 -30 -37 -28 -165 -7 -165 27 0 31 112 33 159 3z"/> <path d="M1367 1033 c-13 -12 -7 -43 8 -43 8 0 15 6 15 13 0 18 -15 38 -23 30z"/> <path d="M2100 818 c0 -36 4 -48 15 -48 11 0 13 8 8 33 -11 58 -22 65 -23 15z"/> <path d="M776 773 c-17 -17 0 -103 19 -103 18 0 23 18 17 62 -4 34 -22 55 -36 41z"/> <path d="M2431 656 c-26 -31 14 -71 45 -45 21 17 14 53 -12 57 -11 2 -26 -4 -33 -12z"/> </g> </svg> 